<?xml version="1.0" encoding="utf-8"?>
<!-- Generator: Adobe Illustrator 27.5.0, SVG Export Plug-In . SVG Version: 6.00 Build 0)  -->
<svg version="1.1" id="Layer_1" xmlns="http://www.w3.org/2000/svg" xmlns:xlink="http://www.w3.org/1999/xlink" x="0px" y="0px"
	 viewBox="0 0 2000 2000" style="enable-background:new 0 0 2000 2000;" xml:space="preserve">
<g>
	<polygon style="fill:#353333;" points="1153.173,1084.95 1206.942,1033.625 1221.606,1176.181 1013.041,1070.285 1237.072,974.147 
			"/>
	<path style="fill:#353333;" d="M665.968,928.531c0,0,270.984,714.024,334.032,870.768
		c63.068-156.744,334.032-870.768,334.032-870.768c52.146,202.035,153.154,294.909,153.154,294.909l-202.035-40.728l202.035,83.098
		c0,0-397.138,440.845-483.482,542.655c-1.26,1.49-2.578,3.036-3.704,4.373c-1.126-1.337-2.444-2.883-3.704-4.373
		c-86.344-101.81-483.482-542.655-483.482-542.655l202.035-83.098l-202.035,40.728
		C512.814,1223.439,613.821,1130.566,665.968,928.531z"/>
	<polygon style="fill:#353333;" points="986.959,1070.285 778.394,1176.181 793.058,1033.625 846.827,1084.95 762.927,974.147 	"/>
	<path style="fill:#353333;" d="M1000,1442.487c29.634,0,53.655,24.039,53.655,53.673s-24.02,53.654-53.655,53.654
		c-29.634,0-53.654-24.02-53.654-53.654S970.366,1442.487,1000,1442.487z"/>
	<path style="fill:#353333;" d="M1000,1305.62c29.634,0,53.655,24.04,53.655,53.674s-24.02,53.654-53.655,53.654
		c-29.634,0-53.654-24.02-53.654-53.654S970.366,1305.62,1000,1305.62z"/>
	<path style="fill:#353333;" d="M1053.654,1222.427c0,29.634-24.02,53.655-53.655,53.655c-29.634,0-53.654-24.02-53.654-53.655
		c0-29.634,24.02-53.673,53.654-53.673C1029.634,1168.754,1053.654,1192.793,1053.654,1222.427z"/>
	<path style="fill:#353333;" d="M606.241,585.486c2.731,90.64,156.916,163.751,346.997,163.751
		c124.914,0,234.075-31.677,295.233-79.05c-58.848,28.355-145.688,46.341-242.82,46.341c-69.827,0-134.442-9.28-187.103-25.032
		c-29.424-8.802-57.531-22.016-80.978-41.854c-53.788-45.501-48.251-88.539-48.251-88.539l-5.633-82.716l-9.719-142.499
		c54.456,29.672,165.584,50.065,294.145,50.065c137.344,0,255.002-23.218,304.685-56.232
		c-59.402,24.097-159.398,39.926-272.798,39.926c-182.234,0-329.946-40.842-329.946-91.232c0-3.112,0.592-6.186,1.68-9.223
		c1.069-2.94,2.692-5.843,4.755-8.688c0.057-0.076,0.076-0.153,0.115-0.21c4.296-5.862,10.616-11.514,18.731-16.898
		c-0.019,0-0.057,0.019-0.057,0.019c49.645-33.033,167.322-56.251,304.723-56.251c182.234,0,329.946,40.842,329.946,91.251
		l-19.304,283.166c135.912,31.467,224.604,83.002,224.604,141.277c0,95.833-239.631,173.527-535.246,173.527
		s-535.246-77.694-535.246-173.527C464.754,657.547,518.523,616.38,606.241,585.486z"/>
</g>
</svg>
